<?xml version="1.0" encoding="UTF-8" standalone="no"?>
<svg
   version="1.1"
   id="Layer_1"
   x="0px"
   y="0px"
   width="64"
   viewBox="0 0 64 64"
   enable-background="new 0 0 896 896"
   xml:space="preserve"
   sodipodi:docname="new_red.svg"
   inkscape:export-filename="redver1.png"
   inkscape:export-xdpi="96.428574"
   inkscape:export-ydpi="96.428574"
   height="64"
   xmlns:inkscape="http://www.inkscape.org/namespaces/inkscape"
   xmlns:sodipodi="http://sodipodi.sourceforge.net/DTD/sodipodi-0.dtd"
   xmlns="http://www.w3.org/2000/svg"
   xmlns:svg="http://www.w3.org/2000/svg"><defs
   id="defs2" /><sodipodi:namedview
   id="namedview2"
   pagecolor="#ffffff"
   bordercolor="#000000"
   borderopacity="0.25"
   inkscape:showpageshadow="2"
   inkscape:pageopacity="0.0"
   inkscape:pagecheckerboard="0"
   inkscape:deskcolor="#d1d1d1" />&#10;<path
   id="path1"
   d="m 459.69727,38.978516 c -1.62052,0.896957 -2.42853,2.545037 -3.36524,4.105468 -21.83298,36.370321 -43.70315,72.718006 -65.45508,109.136716 -1.41677,2.37215 -3.12994,3.73446 -5.68359,4.33789 -15.40871,3.64122 -30.21465,9.06187 -45.12891,15.33789 -13.52446,6.13254 -26.40873,12.6186 -38.75,20.24805 -27.66159,17.1006 -51.82779,38.08786 -72.78906,62.9668 -17.45529,20.71764 -31.80827,43.27007 -43.125,67.85351 -10.75161,23.35582 -18.69272,47.55447 -22.83594,72.95899 -0.63435,3.88955 -2.15198,6.16549 -6.82422,5.87305 -5.18265,-0.32438 -10.49031,-0.629 -16.97461,0.63281 11.65508,17.71726 22.96611,34.43892 35.43165,51.68164 11.57494,-17.80019 23.85654,-33.8984 35.06835,-52.43164 -6.3084,0 -10.94385,0.0168 -15.57812,-0.004 -7.4419,-0.0333 -7.60249,-0.29008 -6.01953,-7.73047 6.05639,-28.46725 15.93834,-55.46005 30.32812,-80.83398 17.47925,-30.82169 39.63004,-57.68907 67.21875,-79.9043 23.19978,-18.68112 48.71311,-33.50572 76.67774,-43.96289 1.79956,-0.67294 3.64084,-1.85367 6.2793,0.83203 -46.56325,77.80013 -93.23398,155.7795 -139.89454,233.74219 2.92487,2.04919 5.14687,1.52487 7.23828,1.52539 98.15576,0.0244 196.31306,0.0274 294.46876,-0.043 2.32262,-0.002 5.46045,1.36621 6.84765,-1.30859 1.19849,-2.31107 -1.31793,-4.29233 -2.44336,-6.17188 -16.46843,-27.50424 -33.19026,-54.85681 -49.47461,-82.46875 -2.28778,-3.8792 -4.66922,-4.77447 -8.6875,-4.74804 -21.49662,0.14144 -42.99471,0.0786 -64.49218,0.0254 -1.91828,-0.005 -3.99311,0.60208 -6.64649,-1.43946 17.55272,-29.76346 35.12151,-59.58088 53.24805,-88.6875 2.86419,0.85492 3.46554,2.26625 4.23437,3.55274 6.47366,10.8328 12.96241,21.65669 19.45117,32.48047 17.67632,29.48575 35.33962,58.97811 53.03711,88.45117 11.28124,18.78764 22.68434,37.50395 33.85743,56.35547 1.86266,3.14279 4.01434,4.12887 7.58007,4.11523 35.49557,-0.13599 70.99229,-0.0852 106.48829,-0.12891 1.93707,-0.002 3.99933,0.47028 5.71093,-0.71484 1.12634,-1.99133 -0.31415,-3.25125 -1.11719,-4.6289 -6.02477,-10.33618 -12.01831,-20.69267 -18.13476,-30.97461 -20.39653,-34.28696 -40.84768,-68.54102 -61.26367,-102.81641 -18.28929,-30.70476 -36.56624,-61.41571 -54.81836,-92.14258 -0.96533,-1.62517 -2.53168,-3.27994 -0.98047,-5.33398 1.2987,-0.65045 2.34522,-0.0486 3.45898,0.2832 9.1206,2.71692 17.63453,6.94214 26.06641,11.16992 33.05966,16.57646 61.73708,38.77621 85.94727,66.89649 21.60257,25.09143 38.55543,52.80548 50.44336,83.6914 1.63171,4.23935 1.17028,6.9339 -3.18555,8.64453 -3.32947,1.30759 -4.66773,3.67667 -4.52344,7.38868 0.26526,6.82228 0.038,13.66233 0.10938,20.49414 0.0163,1.5614 -0.53009,3.36392 1.36328,4.77148 5.54052,-2.36172 9.66571,-7.60037 16.45703,-9.33594 -0.0341,4.92361 -3.16156,7.34147 -5.95117,9.11719 -8.3291,5.30188 -12.57398,12.07313 -11.01563,22.28906 0.8327,5.45904 -0.38861,11.14829 0.53906,16.47852 2.34387,0.65643 3.44928,-0.63217 4.60743,-1.42188 6.31731,-4.30739 12.68604,-8.56015 18.77539,-13.17578 3.22607,-2.44531 5.9314,-2.89352 9.33398,-0.49219 4.20135,2.96509 8.51722,5.81824 13.02148,8.28711 4.50317,2.46823 8.274,6.55036 13.84571,7.25586 2.02905,-8.0002 -1.14002,-15.40683 -0.23828,-22.80078 0.65142,-5.34161 -1.63056,-8.8139 -5.58789,-11.77734 -2.92163,-2.18787 -5.72871,-4.53012 -8.60352,-6.78125 -1.75988,-1.37805 -3.22461,-2.86673 -2.55078,-5.41406 5.9829,1.3283 9.85975,7.15313 17.08008,7.91796 -2,-9.61394 -1.17701,-18.71293 -1.50391,-27.7832 -0.0842,-2.33663 -1.93219,-3.28412 -3.73242,-4.26758 -6.71282,-3.66717 -13.38471,-7.40979 -20.09375,-11.08398 -1.77923,-0.97443 -3.2865,-2.00159 -4.10938,-4.07422 -5.51616,-13.89452 -11.30658,-27.62523 -18.46093,-40.83203 -14.13189,-26.08692 -31.90902,-49.41703 -52.78321,-70.26758 -10.63933,-10.62728 -22.3802,-20.18128 -34.68164,-29.06641 -30.51016,-22.03687 -63.76834,-38.07462 -100.11914,-47.63085 -4.12963,-1.08567 -6.76935,-3.06992 -8.76367,-6.51954 -2.32843,-4.02758 -4.7143,-8.02287 -7.08594,-12.02539 -19.23417,-32.46078 -38.47163,-64.919275 -57.70117,-97.382809 -0.68939,-1.163802 -1.31284,-2.359164 -3.04101,-2.291015 z M 742.04688,446.77344 c -1.04246,0.0534 -2.0864,1.19313 -3.5918,3.39258 -7.79669,11.39091 -15.62977,22.75837 -23.36719,34.18945 -2.62378,3.87637 -5.78821,7.4954 -7.51953,13.0332 6.63049,0 12.4264,0.0534 18.2207,-0.0215 3.12628,-0.0404 4.22681,1.32614 3.59375,4.34375 -6.45812,30.78277 -16.80873,60.11074 -32.83008,87.2832 -9.29204,15.75951 -19.75465,30.6551 -31.96484,44.37109 -9.86077,11.07684 -20.19068,21.63264 -31.55664,31.10743 -13.9218,11.60533 -28.98329,21.61445 -44.89648,30.31054 -13.3836,7.31372 -27.35701,13.2533 -42.52149,18.46289 47.14723,-80.19694 95.46471,-158.70308 143.04297,-239.11718 H 379.47656 c -1.21631,2.36343 0.23172,3.63681 1.04102,4.98437 16.91371,28.1622 33.96989,56.2391 50.67969,84.52149 2.25503,3.81676 4.69058,4.79943 8.74218,4.77148 21.6627,-0.14911 43.32855,-0.09 64.99219,-0.0449 6.0422,0.0126 6.67923,1.08649 3.65625,6.1914 -12.44368,21.01353 -24.91346,42.01046 -37.44336,62.97266 -4.48623,7.5053 -9.16895,14.89472 -14.0625,22.82227 -1.30807,-1.93341 -2.28473,-3.23859 -3.11719,-4.62891 -12.36412,-20.64891 -24.69828,-41.316 -37.0625,-61.96484 -23.03504,-38.46963 -46.12908,-76.90361 -69.05273,-115.43946 -2.05667,-3.45739 -4.35236,-4.74188 -8.33789,-4.72656 -35.66131,0.13715 -71.32255,0.0756 -106.98438,0.10547 -1.77378,0.001 -3.66972,-0.4321 -6.34375,1.62891 46.65468,78.49009 93.37706,157.09498 140.09961,235.69921 -0.45126,0.30402 -0.90228,0.6081 -1.35351,0.91211 -8.82507,-2.42211 -17.07295,-6.35614 -25.32227,-10.19336 -21.34498,-9.92888 -41.03731,-22.58882 -59.04297,-37.68945 -13.75838,-11.53856 -26.30785,-24.34474 -37.76953,-38.26562 -11.35684,-13.79357 -20.91654,-28.72384 -29.71094,-44.16993 -6.16803,-10.83324 -10.97667,-22.35419 -15.51367,-33.96289 -0.98242,-2.5136 -1.62863,-5.23773 1.81641,-6.63086 5.10108,-2.0628 6.74699,-5.86591 6.03125,-11.14062 -0.21465,-1.58191 0.38373,-3.26483 0.55078,-4.9082 0.61078,-6.00879 0.52556,-11.98243 0.0312,-18.63477 -6.77401,3.18002 -11.41784,7.49909 -16.65234,10.56055 -2.76955,-2.72205 -1.85826,-4.57071 0.42187,-6.13086 4.40605,-3.01474 7.46839,-7.54358 11.98438,-10.46875 1.65475,-1.07184 2.57765,-2.86802 2.60351,-5.12305 0.10251,-8.93743 -0.41485,-17.87833 0.4668,-26.7832 -2.34793,-0.66321 -3.6783,0.71024 -5.15234,1.73242 -6.68289,4.63427 -13.41092,9.20325 -20.04493,13.90625 -2.45941,1.74353 -4.60243,2.11542 -7.24218,0.22852 -3.37406,-2.41174 -6.96007,-4.54243 -10.54688,-6.63672 -5.66053,-3.30511 -10.84385,-7.49897 -17.29883,-9.98047 -0.365,1.0867 -0.82104,1.72739 -0.72656,2.27148 1.49212,8.59274 0.60523,17.25999 0.87695,25.88867 0.0451,1.43094 0.58564,2.46006 1.7461,3.375 4.4179,3.48337 8.74442,7.0832 13.1289,10.60938 1.78026,1.43173 2.64972,3.09076 1.92578,5.53711 -5.6281,-1.82501 -9.50041,-6.47663 -15.73437,-8.10352 0,9.57784 -0.0247,18.67903 0.0176,27.7793 0.0107,2.2973 2.09395,2.79938 3.62109,3.68359 7.04086,4.07666 14.07261,8.17121 21.18555,12.11914 2.0343,1.12915 3.308,2.59022 4.04687,4.77149 5.94212,17.5421 14.2729,33.98787 23.7461,49.8164 19.12183,31.95017 43.36955,59.54715 72.6914,82.4668 32.82559,25.65848 69.46123,43.93031 109.83789,54.47461 3.51404,0.91766 5.87397,2.81598 7.64063,5.80664 19.43034,32.8923 38.82735,65.80442 58.36523,98.63281 2.74551,4.6131 5.16523,9.53169 8.76953,13.47266 2.85297,-0.87042 3.56559,-3.09393 4.66211,-4.85156 2.81464,-4.51135 5.43751,-9.14265 8.16797,-13.70703 18.58723,-31.07126 37.21114,-62.12113 55.73438,-93.23047 2.01135,-3.37799 4.48541,-5.68799 8.84961,-6.2207 31.91439,-8.5354 61.32437,-21.6578 88.6914,-39.51954 23.84043,-15.5601 44.54122,-34.54763 63.49414,-55.67382 21.9091,-24.42131 38.0956,-52.35337 50.93164,-82.28711 8.58331,-20.01646 14.20191,-41.04199 17.83204,-62.49805 0.76074,-4.49658 2.57263,-4.97614 6.09375,-4.90625 5.57476,0.1106 11.15271,0.0312 16.62304,0.0312 0.27655,-2.07754 -0.41607,-3.0513 -1.06445,-3.99219 -9.99975,-14.51146 -19.96736,-29.0467 -30.06445,-43.49023 -1.49976,-2.14531 -2.53958,-3.17843 -3.58203,-3.125 z"
   style="fill:#fffffc;fill-opacity:1" />&#10;&#10;</svg>
